<svg xmlns="http://www.w3.org/2000/svg" width="29" height="29" fill="none" overflow="visible"><g><g><g><path d="M 14.501 14.201 C 11.754 14.201 9.527 16.427 9.527 19.174 C 9.527 21.92 11.754 24.147 14.501 24.147 C 17.247 24.147 19.474 21.92 19.474 19.174 C 19.471 16.429 17.246 14.204 14.501 14.201 Z M 17.559 19.773 L 14.501 19.773 C 14.153 19.773 13.872 19.492 13.871 19.145 L 13.871 16.086 C 13.871 15.739 14.153 15.457 14.501 15.457 C 14.848 15.457 15.13 15.739 15.13 16.086 L 15.13 18.513 L 17.559 18.513 C 17.789 18.506 18.003 18.625 18.12 18.822 C 18.237 19.02 18.237 19.265 18.12 19.462 C 18.003 19.66 17.789 19.778 17.559 19.771 Z" fill="rgb(255, 174, 0)"></path><path d="M 28.741 9.887 L 0.26 9.887 C -0.258 14.478 -0.001 19.122 1.019 23.627 C 1.482 25.553 3.447 27.517 5.371 27.979 C 11.38 29.34 17.618 29.34 23.626 27.979 C 25.552 27.516 27.516 25.551 27.978 23.627 C 29 19.122 29.258 14.478 28.741 9.887 Z M 14.501 25.615 C 10.943 25.615 8.059 22.731 8.059 19.174 C 8.059 15.617 10.943 12.733 14.501 12.733 C 18.058 12.733 20.942 15.617 20.942 19.174 C 20.942 20.882 20.264 22.52 19.056 23.728 C 17.848 24.936 16.209 25.615 14.501 25.615 Z M 28.584 8.667 C 28.427 7.568 28.226 6.47 27.982 5.374 C 27.52 3.448 25.557 1.485 23.63 1.022 C 17.621 -0.34 11.383 -0.341 5.373 1.021 C 3.449 1.484 1.484 3.447 1.019 5.374 C 0.774 6.469 0.572 7.566 0.415 8.667 Z" fill="rgb(255, 174, 0)"></path></g></g></g></svg>