<svg xmlns="http://www.w3.org/2000/svg" width="29" height="29" fill="none" overflow="visible"><g><path d="M 24.802 3.739 L 24.077 3.739 L 24.077 6.277 C 24.077 7.161 23.363 7.875 22.479 7.875 L 21.086 7.875 C 20.202 7.875 19.488 7.161 19.488 6.277 L 19.488 3.739 L 16.769 3.739 L 16.769 6.277 C 16.769 7.161 16.055 7.875 15.171 7.875 L 13.778 7.875 C 12.894 7.875 12.18 7.161 12.18 6.277 L 12.18 3.739 L 9.461 3.739 L 9.461 6.277 C 9.461 7.161 8.747 7.875 7.863 7.875 L 6.47 7.875 C 5.586 7.875 4.872 7.161 4.872 6.277 L 4.872 3.739 L 4.204 3.739 C 1.881 3.739 0 5.62 0 7.943 L 0 24.796 C 0 27.119 1.881 29 4.204 29 L 24.796 29 C 27.119 29 29 27.119 29 24.796 L 29 7.943 C 29.006 5.62 27.125 3.739 24.802 3.739 Z M 3.314 14.418 C 3.314 13.653 3.937 13.03 4.702 13.03 L 7.195 13.03 C 7.96 13.03 8.583 13.653 8.583 14.418 C 8.583 15.183 7.96 15.806 7.195 15.806 L 4.702 15.806 C 3.937 15.806 3.314 15.183 3.314 14.418 Z M 8.611 20.763 C 8.611 21.528 7.988 22.151 7.223 22.151 L 4.73 22.151 C 3.966 22.151 3.342 21.528 3.342 20.763 C 3.342 19.998 3.966 19.375 4.73 19.375 L 7.223 19.375 C 7.988 19.375 8.611 19.998 8.611 20.763 Z M 11.869 14.418 C 11.869 13.653 12.492 13.03 13.256 13.03 L 15.749 13.03 C 16.514 13.03 17.137 13.653 17.137 14.418 C 17.137 15.183 16.514 15.806 15.749 15.806 L 13.256 15.806 C 12.492 15.806 11.869 15.183 11.869 14.418 Z M 17.165 20.763 C 17.165 21.528 16.542 22.151 15.777 22.151 L 13.285 22.151 C 12.52 22.151 11.897 21.528 11.897 20.763 C 11.897 19.998 12.52 19.375 13.285 19.375 L 15.777 19.375 C 16.542 19.375 17.165 19.998 17.165 20.763 Z M 20.423 14.418 C 20.423 13.653 21.046 13.03 21.811 13.03 L 24.304 13.03 C 25.068 13.03 25.692 13.653 25.692 14.418 C 25.692 15.183 25.068 15.806 24.304 15.806 L 21.811 15.806 C 21.046 15.806 20.423 15.183 20.423 14.418 Z M 25.72 20.763 C 25.72 21.528 25.097 22.151 24.332 22.151 L 21.839 22.151 C 21.074 22.151 20.451 21.528 20.451 20.763 C 20.451 19.998 21.074 19.375 21.839 19.375 L 24.332 19.375 C 25.097 19.375 25.72 19.998 25.72 20.763 Z" fill="rgb(255, 174, 0)"></path><path d="M 6.47 0 L 7.863 0 C 8.277 0 8.611 0.334 8.611 0.748 L 8.611 6.277 C 8.611 6.691 8.277 7.025 7.863 7.025 L 6.47 7.025 C 6.056 7.025 5.722 6.691 5.722 6.277 L 5.722 0.748 C 5.722 0.334 6.056 0 6.47 0 Z M 13.778 0 L 15.171 0 C 15.585 0 15.919 0.334 15.919 0.748 L 15.919 6.277 C 15.919 6.691 15.585 7.025 15.171 7.025 L 13.778 7.025 C 13.364 7.025 13.03 6.691 13.03 6.277 L 13.03 0.748 C 13.03 0.334 13.364 0 13.778 0 Z M 21.086 0 L 22.479 0 C 22.893 0 23.227 0.334 23.227 0.748 L 23.227 6.277 C 23.227 6.691 22.893 7.025 22.479 7.025 L 21.086 7.025 C 20.672 7.025 20.338 6.691 20.338 6.277 L 20.338 0.748 C 20.338 0.334 20.672 0 21.086 0 Z" fill="rgb(255, 174, 0)"></path></g></svg>