<svg xmlns="http://www.w3.org/2000/svg" width="114.675" height="17.859" fill="none" overflow="visible"><path d="M 106.289 0.691 C 105.99 -0.23 104.686 -0.23 104.387 0.691 L 102.868 5.365 C 102.734 5.776 102.35 6.055 101.917 6.055 L 97.003 6.055 C 96.034 6.055 95.632 7.295 96.415 7.865 L 100.391 10.753 C 100.741 11.007 100.888 11.459 100.754 11.871 L 99.236 16.545 C 98.936 17.467 99.991 18.233 100.774 17.663 L 104.75 14.775 C 105.1 14.52 105.575 14.52 105.926 14.775 L 109.902 17.663 C 110.685 18.233 111.74 17.466 111.44 16.545 L 109.922 11.871 C 109.788 11.459 109.934 11.007 110.285 10.753 L 114.261 7.865 C 115.044 7.295 114.642 6.055 113.673 6.055 L 108.759 6.055 C 108.326 6.055 107.942 5.776 107.808 5.365 Z M 82.289 0.691 C 81.989 -0.23 80.686 -0.23 80.387 0.691 L 78.868 5.365 C 78.734 5.776 78.351 6.055 77.918 6.056 L 73.003 6.056 C 72.034 6.056 71.632 7.296 72.415 7.866 L 76.391 10.754 C 76.741 11.008 76.888 11.46 76.754 11.872 L 75.236 16.545 C 74.936 17.467 75.991 18.233 76.774 17.663 L 80.75 14.775 C 81.1 14.52 81.575 14.52 81.926 14.775 L 85.901 17.663 C 86.685 18.233 87.74 17.467 87.441 16.545 L 85.921 11.872 C 85.787 11.46 85.934 11.008 86.285 10.754 L 90.261 7.865 C 91.045 7.295 90.641 6.056 89.673 6.056 L 84.759 6.056 C 84.326 6.056 83.942 5.777 83.808 5.366 L 82.288 0.69 Z M 58.289 0.691 C 57.989 -0.23 56.686 -0.23 56.387 0.691 L 54.868 5.365 C 54.734 5.776 54.351 6.055 53.918 6.056 L 49.003 6.056 C 48.034 6.056 47.632 7.296 48.415 7.866 L 52.391 10.754 C 52.741 11.008 52.888 11.46 52.754 11.872 L 51.236 16.545 C 50.936 17.467 51.991 18.233 52.774 17.663 L 56.75 14.775 C 57.1 14.52 57.575 14.52 57.926 14.775 L 61.901 17.663 C 62.685 18.233 63.74 17.467 63.441 16.545 L 61.921 11.872 C 61.787 11.46 61.934 11.008 62.285 10.754 L 66.261 7.865 C 67.045 7.295 66.641 6.056 65.673 6.056 L 60.759 6.056 C 60.326 6.056 59.942 5.777 59.808 5.366 L 58.288 0.69 Z M 34.289 0.691 C 33.989 -0.23 32.686 -0.23 32.387 0.691 L 30.868 5.365 C 30.734 5.776 30.351 6.055 29.918 6.056 L 25.003 6.056 C 24.034 6.056 23.631 7.296 24.415 7.866 L 28.391 10.754 C 28.741 11.008 28.888 11.46 28.754 11.872 L 27.236 16.545 C 26.936 17.467 27.991 18.233 28.774 17.663 L 32.75 14.775 C 33.1 14.52 33.575 14.52 33.926 14.775 L 37.901 17.663 C 38.685 18.233 39.74 17.467 39.441 16.545 L 37.921 11.872 C 37.787 11.46 37.934 11.008 38.285 10.754 L 42.261 7.865 C 43.044 7.295 42.641 6.056 41.673 6.056 L 36.759 6.056 C 36.326 6.056 35.942 5.777 35.808 5.366 L 34.288 0.69 Z M 10.289 0.691 C 9.989 -0.23 8.686 -0.23 8.387 0.691 L 6.868 5.365 C 6.734 5.776 6.351 6.055 5.918 6.056 L 1.002 6.056 C 0.033 6.056 -0.369 7.296 0.414 7.866 L 4.39 10.754 C 4.74 11.008 4.887 11.46 4.753 11.872 L 3.236 16.544 C 2.936 17.466 3.991 18.232 4.774 17.662 L 8.75 14.774 C 9.1 14.519 9.575 14.519 9.926 14.774 L 13.902 17.662 C 14.685 18.232 15.74 17.466 15.44 16.544 L 13.922 11.871 C 13.788 11.459 13.934 11.007 14.285 10.753 L 18.261 7.864 C 19.045 7.294 18.641 6.055 17.673 6.055 L 12.759 6.055 C 12.326 6.055 11.942 5.776 11.808 5.365 L 10.288 0.69 Z" fill="rgb(255, 225, 0)"></path></svg>